<?xml version="1.0" encoding="UTF-8" standalone="no"?>
<!DOCTYPE svg PUBLIC "-//W3C//DTD SVG 1.1//EN"
 "http://www.w3.org/Graphics/SVG/1.1/DTD/svg11.dtd">
<!-- Generated by graphviz version 14.1.5 (20260411.2331)
 -->
<!-- Title: G Pages: 1 -->
<svg width="714pt" height="403pt"
 viewBox="0.00 0.00 714.00 403.00" xmlns="http://www.w3.org/2000/svg" xmlns:xlink="http://www.w3.org/1999/xlink">
<g id="graph0" class="graph" transform="scale(1 1) rotate(0) translate(4 398.96)">
<title>G</title><style>.edge>path:hover{stroke-width:8}</style>
<polygon fill="white" stroke="none" points="-4,4 -4,-398.96 710.28,-398.96 710.28,4 -4,4"/>
<!-- antlr4 -->
<g id="node1" class="node">
<title>antlr4</title><style>.edge>path:hover{stroke-width:8}</style>
<ellipse fill="#80e619" stroke="black" cx="261.54" cy="-372.33" rx="27" ry="18"/>
<text xml:space="preserve" text-anchor="middle" x="261.54" y="-368.83" font-family="Helvetica,sans-Serif" font-size="10.00" fill="#000000">antlr4</text>
</g>
<!-- simulator_test_ast -->
<g id="node10" class="node">
<title>simulator_test_ast</title><style>.edge>path:hover{stroke-width:8}</style>
<ellipse fill="#7f4cb3" stroke="black" cx="41.54" cy="-219.08" rx="41.54" ry="22.63"/>
<text xml:space="preserve" text-anchor="middle" x="41.54" y="-221.58" font-family="Helvetica,sans-Serif" font-size="10.00" fill="#ffffff">simulator.</text>
<text xml:space="preserve" text-anchor="middle" x="41.54" y="-209.58" font-family="Helvetica,sans-Serif" font-size="10.00" fill="#ffffff">test_ast</text>
</g>
<!-- antlr4&#45;&gt;simulator_test_ast -->
<g id="edge1" class="edge">
<title>antlr4&#45;&gt;simulator_test_ast</title><style>.edge>path:hover{stroke-width:8}</style>
<path fill="none" stroke="black" d="M264.39,-354.01C266.26,-338.6 267.41,-315.64 261.54,-296.71"/>
<path fill="none" stroke="black" d="M261.54,-294.71C238.25,-219.51 166.42,-268.88 92.54,-241.71 89.68,-240.65 86.74,-239.53 83.8,-238.37"/>
<polygon fill="#80e619" stroke="black" points="85.17,-235.15 74.58,-234.63 82.53,-241.63 85.17,-235.15"/>
</g>
<!-- simulator_test_errors -->
<g id="node11" class="node">
<title>simulator_test_errors</title><style>.edge>path:hover{stroke-width:8}</style>
<ellipse fill="#7f4cb3" stroke="black" cx="145.54" cy="-219.08" rx="44.19" ry="22.63"/>
<text xml:space="preserve" text-anchor="middle" x="145.54" y="-221.58" font-family="Helvetica,sans-Serif" font-size="10.00" fill="#ffffff">simulator.</text>
<text xml:space="preserve" text-anchor="middle" x="145.54" y="-209.58" font-family="Helvetica,sans-Serif" font-size="10.00" fill="#ffffff">test_errors</text>
</g>
<!-- antlr4&#45;&gt;simulator_test_errors -->
<g id="edge2" class="edge">
<title>antlr4&#45;&gt;simulator_test_errors</title><style>.edge>path:hover{stroke-width:8}</style>
<path fill="none" stroke="black" d="M261.54,-294.71C256.34,-277.9 218.91,-255.81 187.96,-240.03"/>
<polygon fill="#80e619" stroke="black" points="189.63,-236.96 179.12,-235.62 186.5,-243.22 189.63,-236.96"/>
</g>
<!-- simulator_test_grammar -->
<g id="node12" class="node">
<title>simulator_test_grammar</title><style>.edge>path:hover{stroke-width:8}</style>
<ellipse fill="#7f4cb3" stroke="black" cx="261.54" cy="-219.08" rx="53.74" ry="22.63"/>
<text xml:space="preserve" text-anchor="middle" x="261.54" y="-221.58" font-family="Helvetica,sans-Serif" font-size="10.00" fill="#ffffff">simulator.</text>
<text xml:space="preserve" text-anchor="middle" x="261.54" y="-209.58" font-family="Helvetica,sans-Serif" font-size="10.00" fill="#ffffff">test_grammar</text>
</g>
<!-- antlr4&#45;&gt;simulator_test_grammar -->
<g id="edge3" class="edge">
<title>antlr4&#45;&gt;simulator_test_grammar</title><style>.edge>path:hover{stroke-width:8}</style>
<path fill="none" stroke="black" d="M261.54,-294.71C257.49,-281.63 256.79,-266.63 257.35,-253.53"/>
<polygon fill="#80e619" stroke="black" points="260.84,-253.88 258.06,-243.65 253.85,-253.37 260.84,-253.88"/>
</g>
<!-- simulator_test_warnings -->
<g id="node13" class="node">
<title>simulator_test_warnings</title><style>.edge>path:hover{stroke-width:8}</style>
<ellipse fill="#7f4cb3" stroke="black" cx="387.54" cy="-219.08" rx="54.27" ry="22.63"/>
<text xml:space="preserve" text-anchor="middle" x="387.54" y="-221.58" font-family="Helvetica,sans-Serif" font-size="10.00" fill="#ffffff">simulator.</text>
<text xml:space="preserve" text-anchor="middle" x="387.54" y="-209.58" font-family="Helvetica,sans-Serif" font-size="10.00" fill="#ffffff">test_warnings</text>
</g>
<!-- antlr4&#45;&gt;simulator_test_warnings -->
<g id="edge4" class="edge">
<title>antlr4&#45;&gt;simulator_test_warnings</title><style>.edge>path:hover{stroke-width:8}</style>
<path fill="none" stroke="black" d="M261.54,-294.71C255.94,-276.61 299.54,-254.3 336.96,-238.81"/>
<polygon fill="#80e619" stroke="black" points="337.95,-242.19 345.91,-235.2 335.32,-235.7 337.95,-242.19"/>
</g>
<!-- cryptography -->
<g id="node2" class="node">
<title>cryptography</title><style>.edge>path:hover{stroke-width:8}</style>
<ellipse fill="#33cccc" stroke="black" cx="355.54" cy="-372.33" rx="43.45" ry="18"/>
<text xml:space="preserve" text-anchor="middle" x="355.54" y="-368.83" font-family="Helvetica,sans-Serif" font-size="10.00" fill="#000000">cryptography</text>
</g>
<!-- simulator_output_console_gamification -->
<g id="node9" class="node">
<title>simulator_output_console_gamification</title><style>.edge>path:hover{stroke-width:8}</style>
<ellipse fill="#7a49ac" stroke="black" cx="469.54" cy="-129.34" rx="76.01" ry="31.11"/>
<text xml:space="preserve" text-anchor="middle" x="469.54" y="-137.84" font-family="Helvetica,sans-Serif" font-size="10.00" fill="#ffffff">simulator.</text>
<text xml:space="preserve" text-anchor="middle" x="469.54" y="-125.84" font-family="Helvetica,sans-Serif" font-size="10.00" fill="#ffffff">output.</text>
<text xml:space="preserve" text-anchor="middle" x="469.54" y="-113.84" font-family="Helvetica,sans-Serif" font-size="10.00" fill="#ffffff">console_gamification</text>
</g>
<!-- cryptography&#45;&gt;simulator_output_console_gamification -->
<g id="edge5" class="edge">
<title>cryptography&#45;&gt;simulator_output_console_gamification</title><style>.edge>path:hover{stroke-width:8}</style>
<path fill="none" stroke="black" d="M383.35,-358.19C415.02,-342.44 463.22,-315.79 469.54,-296.71"/>
<path fill="none" stroke="black" d="M469.54,-294.71C482.82,-254.6 480.74,-205.91 476.63,-171.98"/>
<polygon fill="#33cccc" stroke="black" points="480.11,-171.58 475.31,-162.13 473.17,-172.51 480.11,-171.58"/>
</g>
<!-- cryptography_fernet -->
<g id="node3" class="node">
<title>cryptography_fernet</title><style>.edge>path:hover{stroke-width:8}</style>
<ellipse fill="#4cb3b3" stroke="black" cx="469.54" cy="-372.33" rx="52.68" ry="22.63"/>
<text xml:space="preserve" text-anchor="middle" x="469.54" y="-374.83" font-family="Helvetica,sans-Serif" font-size="10.00" fill="#000000">cryptography.</text>
<text xml:space="preserve" text-anchor="middle" x="469.54" y="-362.83" font-family="Helvetica,sans-Serif" font-size="10.00" fill="#000000">fernet</text>
</g>
<!-- cryptography_fernet&#45;&gt;simulator_output_console_gamification -->
<g id="edge6" class="edge">
<title>cryptography_fernet&#45;&gt;simulator_output_console_gamification</title><style>.edge>path:hover{stroke-width:8}</style>
<path fill="none" stroke="black" d="M465.99,-349.53C464.37,-334.33 463.88,-313.8 469.54,-296.71"/>
</g>
<!-- PIL -->
<g id="node4" class="node">
<title>PIL</title><style>.edge>path:hover{stroke-width:8}</style>
<ellipse fill="#e61919" stroke="black" cx="562.54" cy="-295.71" rx="27" ry="18"/>
<text xml:space="preserve" text-anchor="middle" x="562.54" y="-292.21" font-family="Helvetica,sans-Serif" font-size="10.00" fill="#ffffff">PIL</text>
</g>
<!-- simulator_graphics_drawing -->
<g id="node7" class="node">
<title>simulator_graphics_drawing</title><style>.edge>path:hover{stroke-width:8}</style>
<ellipse fill="#7546a4" stroke="black" cx="664.54" cy="-31.11" rx="41.54" ry="31.11"/>
<text xml:space="preserve" text-anchor="middle" x="664.54" y="-39.61" font-family="Helvetica,sans-Serif" font-size="10.00" fill="#ffffff">simulator.</text>
<text xml:space="preserve" text-anchor="middle" x="664.54" y="-27.61" font-family="Helvetica,sans-Serif" font-size="10.00" fill="#ffffff">graphics.</text>
<text xml:space="preserve" text-anchor="middle" x="664.54" y="-15.61" font-family="Helvetica,sans-Serif" font-size="10.00" fill="#ffffff">drawing</text>
</g>
<!-- PIL&#45;&gt;simulator_graphics_drawing -->
<g id="edge7" class="edge">
<title>PIL&#45;&gt;simulator_graphics_drawing</title><style>.edge>path:hover{stroke-width:8}</style>
<path fill="none" stroke="black" d="M633.54,-128.34C636.48,-109.27 642.61,-88.84 648.65,-71.72"/>
<polygon fill="#e61919" stroke="black" points="651.9,-73.02 652.05,-62.43 645.33,-70.62 651.9,-73.02"/>
<path fill="none" stroke="black" d="M595.54,-218.08C608.41,-177.58 627.07,-172.34 633.54,-130.34"/>
</g>
<!-- simulator_graphics_huds -->
<g id="node8" class="node">
<title>simulator_graphics_huds</title><style>.edge>path:hover{stroke-width:8}</style>
<ellipse fill="#7546a4" stroke="black" cx="563.54" cy="-31.11" rx="41.54" ry="31.11"/>
<text xml:space="preserve" text-anchor="middle" x="563.54" y="-39.61" font-family="Helvetica,sans-Serif" font-size="10.00" fill="#ffffff">simulator.</text>
<text xml:space="preserve" text-anchor="middle" x="563.54" y="-27.61" font-family="Helvetica,sans-Serif" font-size="10.00" fill="#ffffff">graphics.</text>
<text xml:space="preserve" text-anchor="middle" x="563.54" y="-15.61" font-family="Helvetica,sans-Serif" font-size="10.00" fill="#ffffff">huds</text>
</g>
<!-- PIL&#45;&gt;simulator_graphics_huds -->
<g id="edge8" class="edge">
<title>PIL&#45;&gt;simulator_graphics_huds</title><style>.edge>path:hover{stroke-width:8}</style>
<path fill="none" stroke="black" d="M595.54,-218.08C607.35,-180.91 599.3,-169.15 595.54,-130.34"/>
<path fill="none" stroke="black" d="M571.08,-278.22C578.47,-263.36 588.98,-240.74 595.54,-220.08"/>
</g>
<!-- PIL_Image -->
<g id="node5" class="node">
<title>PIL_Image</title><style>.edge>path:hover{stroke-width:8}</style>
<ellipse fill="#cc3333" stroke="black" cx="650.54" cy="-372.33" rx="36.68" ry="18"/>
<text xml:space="preserve" text-anchor="middle" x="650.54" y="-368.83" font-family="Helvetica,sans-Serif" font-size="10.00" fill="#ffffff">PIL.Image</text>
</g>
<!-- PIL_ImageTk -->
<g id="node6" class="node">
<title>PIL_ImageTk</title><style>.edge>path:hover{stroke-width:8}</style>
<ellipse fill="#b83d3d" stroke="black" cx="650.54" cy="-295.71" rx="43.45" ry="18"/>
<text xml:space="preserve" text-anchor="middle" x="650.54" y="-292.21" font-family="Helvetica,sans-Serif" font-size="10.00" fill="#ffffff">PIL.ImageTk</text>
</g>
<!-- PIL_Image&#45;&gt;PIL_ImageTk -->
<g id="edge9" class="edge">
<title>PIL_Image&#45;&gt;PIL_ImageTk</title><style>.edge>path:hover{stroke-width:8}</style>
<path fill="none" stroke="black" d="M650.54,-354.02C650.54,-345.61 650.54,-335.26 650.54,-325.69"/>
<polygon fill="#cc3333" stroke="black" points="654.04,-325.69 650.54,-315.69 647.04,-325.69 654.04,-325.69"/>
</g>
<!-- PIL_Image&#45;&gt;simulator_graphics_drawing -->
<g id="edge10" class="edge">
<title>PIL_Image&#45;&gt;simulator_graphics_drawing</title><style>.edge>path:hover{stroke-width:8}</style>
<path fill="none" stroke="black" d="M669.51,-356.72C681.49,-346.23 695.92,-330.94 702.54,-313.71 708.28,-298.77 706.02,-293.32 702.54,-277.71 686.83,-207.11 622.53,-201.82 633.54,-130.34"/>
</g>
<!-- PIL_Image&#45;&gt;simulator_graphics_huds -->
<g id="edge11" class="edge">
<title>PIL_Image&#45;&gt;simulator_graphics_huds</title><style>.edge>path:hover{stroke-width:8}</style>
<path fill="none" stroke="black" d="M615.96,-365.72C586.55,-358.93 546.08,-344.33 526.54,-313.71 517.94,-300.22 523.07,-293.32 526.54,-277.71 542.25,-207.11 602.51,-202.32 595.54,-130.34"/>
<path fill="none" stroke="black" d="M595.54,-128.34C592.48,-109.23 586.15,-88.79 579.92,-71.69"/>
<polygon fill="#cc3333" stroke="black" points="583.22,-70.51 576.41,-62.39 576.67,-72.98 583.22,-70.51"/>
</g>
<!-- PIL_ImageTk&#45;&gt;simulator_graphics_drawing -->
<g id="edge12" class="edge">
<title>PIL_ImageTk&#45;&gt;simulator_graphics_drawing</title><style>.edge>path:hover{stroke-width:8}</style>
<path fill="none" stroke="black" d="M633.54,-218.08C625.28,-179.97 627.61,-168.88 633.54,-130.34"/>
</g>
<!-- PIL_ImageTk&#45;&gt;simulator_graphics_huds -->
<g id="edge13" class="edge">
<title>PIL_ImageTk&#45;&gt;simulator_graphics_huds</title><style>.edge>path:hover{stroke-width:8}</style>
<path fill="none" stroke="black" d="M633.54,-218.08C624.54,-176.55 599.64,-172.64 595.54,-130.34"/>
<path fill="none" stroke="black" d="M646.52,-277.54C643.01,-262.43 637.82,-239.82 633.54,-220.08"/>
</g>
</g>
</svg>
